<mxfile host="app.diagrams.net" modified="2023-11-13T14:31:10.829Z" agent="Mozilla/5.0 (Windows NT 10.0; Win64; x64) AppleWebKit/537.36 (KHTML, like Gecko) Chrome/119.0.0.0 Safari/537.36" etag="O0YQJxJ-XM_oqpVD6XJv" version="22.1.0" type="device">
  <diagram name="Trang-1" id="875s9HhrCnIbohzMTVZo">
    <mxGraphModel dx="1050" dy="534" grid="1" gridSize="10" guides="1" tooltips="1" connect="1" arrows="1" fold="1" page="1" pageScale="1" pageWidth="827" pageHeight="1169" math="0" shadow="0">
      <root>
        <mxCell id="0" />
        <mxCell id="1" parent="0" />
        <mxCell id="0AXuN8qhgTlBM-0Ob6mB-1" value="" style="rounded=0;whiteSpace=wrap;html=1;" parent="1" vertex="1">
          <mxGeometry x="370" y="170" width="950" height="570" as="geometry" />
        </mxCell>
        <mxCell id="0AXuN8qhgTlBM-0Ob6mB-2" value="alt create Student" style="shape=umlFrame;whiteSpace=wrap;html=1;width=135;height=30;" parent="1" vertex="1">
          <mxGeometry x="425" y="400" width="865" height="300" as="geometry" />
        </mxCell>
        <mxCell id="0AXuN8qhgTlBM-0Ob6mB-3" value="Admin" style="shape=umlActor;verticalLabelPosition=bottom;verticalAlign=top;html=1;" parent="1" vertex="1">
          <mxGeometry x="426" y="190" width="30" height="60" as="geometry" />
        </mxCell>
        <mxCell id="0AXuN8qhgTlBM-0Ob6mB-4" style="edgeStyle=orthogonalEdgeStyle;rounded=0;orthogonalLoop=1;jettySize=auto;html=1;dashed=1;endArrow=none;endFill=0;" parent="1" source="0AXuN8qhgTlBM-0Ob6mB-3" edge="1">
          <mxGeometry relative="1" as="geometry">
            <mxPoint x="440" y="740" as="targetPoint" />
          </mxGeometry>
        </mxCell>
        <mxCell id="0AXuN8qhgTlBM-0Ob6mB-5" value="View" style="shape=umlLifeline;perimeter=lifelinePerimeter;container=1;collapsible=0;recursiveResize=0;rounded=0;shadow=0;strokeWidth=1;" parent="1" vertex="1">
          <mxGeometry x="545" y="190" width="100" height="550" as="geometry" />
        </mxCell>
        <mxCell id="0AXuN8qhgTlBM-0Ob6mB-6" value="" style="html=1;points=[];perimeter=orthogonalPerimeter;" parent="0AXuN8qhgTlBM-0Ob6mB-5" vertex="1">
          <mxGeometry x="45" y="140" width="10" height="330" as="geometry" />
        </mxCell>
        <mxCell id="0AXuN8qhgTlBM-0Ob6mB-7" value="11.Display message create" style="html=1;verticalAlign=bottom;endArrow=open;dashed=1;endSize=8;" parent="0AXuN8qhgTlBM-0Ob6mB-5" edge="1">
          <mxGeometry x="-0.0526" relative="1" as="geometry">
            <mxPoint x="42.5" y="470" as="sourcePoint" />
            <mxPoint x="-105" y="470" as="targetPoint" />
            <mxPoint as="offset" />
          </mxGeometry>
        </mxCell>
        <mxCell id="0AXuN8qhgTlBM-0Ob6mB-8" value="StudentController" style="shape=umlLifeline;perimeter=lifelinePerimeter;container=1;collapsible=0;recursiveResize=0;rounded=0;shadow=0;strokeWidth=1;" parent="1" vertex="1">
          <mxGeometry x="695" y="190" width="120" height="550" as="geometry" />
        </mxCell>
        <mxCell id="0AXuN8qhgTlBM-0Ob6mB-9" value="" style="html=1;points=[];perimeter=orthogonalPerimeter;" parent="0AXuN8qhgTlBM-0Ob6mB-8" vertex="1">
          <mxGeometry x="55" y="160" width="10" height="270" as="geometry" />
        </mxCell>
        <mxCell id="0AXuN8qhgTlBM-0Ob6mB-10" value="4.2. &amp;nbsp;Return invalid view" style="html=1;verticalAlign=bottom;endArrow=open;dashed=1;endSize=8;exitX=-0.055;exitY=0.291;exitDx=0;exitDy=0;exitPerimeter=0;" parent="0AXuN8qhgTlBM-0Ob6mB-8" edge="1">
          <mxGeometry x="-0.0033" relative="1" as="geometry">
            <mxPoint x="55" y="270" as="sourcePoint" />
            <mxPoint x="-95" y="270" as="targetPoint" />
            <mxPoint as="offset" />
          </mxGeometry>
        </mxCell>
        <mxCell id="0AXuN8qhgTlBM-0Ob6mB-11" value="10.Return valid view" style="html=1;verticalAlign=bottom;endArrow=open;dashed=1;endSize=8;exitX=-0.055;exitY=0.291;exitDx=0;exitDy=0;exitPerimeter=0;entryX=0.942;entryY=0.881;entryDx=0;entryDy=0;entryPerimeter=0;" parent="0AXuN8qhgTlBM-0Ob6mB-8" target="0AXuN8qhgTlBM-0Ob6mB-6" edge="1">
          <mxGeometry x="-0.0033" relative="1" as="geometry">
            <mxPoint x="55" y="430" as="sourcePoint" />
            <mxPoint x="-94" y="431" as="targetPoint" />
            <mxPoint as="offset" />
          </mxGeometry>
        </mxCell>
        <mxCell id="0AXuN8qhgTlBM-0Ob6mB-12" value="4.1. &amp;nbsp;Return invalid view" style="html=1;verticalAlign=bottom;endArrow=open;dashed=1;endSize=8;exitX=-0.055;exitY=0.291;exitDx=0;exitDy=0;exitPerimeter=0;" parent="0AXuN8qhgTlBM-0Ob6mB-8" edge="1">
          <mxGeometry x="-0.0033" relative="1" as="geometry">
            <mxPoint x="214" y="250" as="sourcePoint" />
            <mxPoint x="65" y="251" as="targetPoint" />
            <mxPoint as="offset" />
          </mxGeometry>
        </mxCell>
        <mxCell id="0AXuN8qhgTlBM-0Ob6mB-13" value="3. createStudent()" style="html=1;verticalAlign=bottom;endArrow=block;entryX=0;entryY=0;entryDx=0;entryDy=0;entryPerimeter=0;" parent="0AXuN8qhgTlBM-0Ob6mB-8" target="0AXuN8qhgTlBM-0Ob6mB-15" edge="1">
          <mxGeometry x="0.0667" width="80" relative="1" as="geometry">
            <mxPoint x="65" y="170" as="sourcePoint" />
            <mxPoint x="215" y="170" as="targetPoint" />
            <mxPoint as="offset" />
          </mxGeometry>
        </mxCell>
        <mxCell id="0AXuN8qhgTlBM-0Ob6mB-14" value="StudentService" style="shape=umlLifeline;perimeter=lifelinePerimeter;container=1;collapsible=0;recursiveResize=0;rounded=0;shadow=0;strokeWidth=1;" parent="1" vertex="1">
          <mxGeometry x="860" y="190" width="110" height="550" as="geometry" />
        </mxCell>
        <mxCell id="0AXuN8qhgTlBM-0Ob6mB-15" value="" style="html=1;points=[];perimeter=orthogonalPerimeter;" parent="0AXuN8qhgTlBM-0Ob6mB-14" vertex="1">
          <mxGeometry x="50" y="170" width="10" height="240" as="geometry" />
        </mxCell>
        <mxCell id="0AXuN8qhgTlBM-0Ob6mB-16" value="9.Return result" style="html=1;verticalAlign=bottom;endArrow=open;dashed=1;endSize=8;exitX=-0.055;exitY=0.291;exitDx=0;exitDy=0;exitPerimeter=0;" parent="0AXuN8qhgTlBM-0Ob6mB-14" edge="1">
          <mxGeometry x="-0.0029" relative="1" as="geometry">
            <mxPoint x="50" y="410" as="sourcePoint" />
            <mxPoint x="-100" y="410" as="targetPoint" />
            <mxPoint as="offset" />
          </mxGeometry>
        </mxCell>
        <mxCell id="0AXuN8qhgTlBM-0Ob6mB-17" value="StudentRepository" style="shape=umlLifeline;perimeter=lifelinePerimeter;container=1;collapsible=0;recursiveResize=0;rounded=0;shadow=0;strokeWidth=1;" parent="1" vertex="1">
          <mxGeometry x="1010" y="190" width="130" height="550" as="geometry" />
        </mxCell>
        <mxCell id="0AXuN8qhgTlBM-0Ob6mB-18" value="" style="html=1;points=[];perimeter=orthogonalPerimeter;" parent="0AXuN8qhgTlBM-0Ob6mB-17" vertex="1">
          <mxGeometry x="60" y="320" width="10" height="70" as="geometry" />
        </mxCell>
        <mxCell id="0AXuN8qhgTlBM-0Ob6mB-19" value="5. create()" style="html=1;verticalAlign=bottom;endArrow=block;" parent="0AXuN8qhgTlBM-0Ob6mB-17" edge="1">
          <mxGeometry x="0.0667" width="80" relative="1" as="geometry">
            <mxPoint x="-90" y="320" as="sourcePoint" />
            <mxPoint x="60" y="320" as="targetPoint" />
            <mxPoint as="offset" />
          </mxGeometry>
        </mxCell>
        <mxCell id="0AXuN8qhgTlBM-0Ob6mB-20" value="Database" style="shape=umlLifeline;perimeter=lifelinePerimeter;container=1;collapsible=0;recursiveResize=0;rounded=0;shadow=0;strokeWidth=1;" parent="1" vertex="1">
          <mxGeometry x="1185" y="190" width="100" height="550" as="geometry" />
        </mxCell>
        <mxCell id="0AXuN8qhgTlBM-0Ob6mB-21" value="" style="html=1;points=[];perimeter=orthogonalPerimeter;" parent="0AXuN8qhgTlBM-0Ob6mB-20" vertex="1">
          <mxGeometry x="45" y="340" width="10" height="30" as="geometry" />
        </mxCell>
        <mxCell id="0AXuN8qhgTlBM-0Ob6mB-22" value="1. Click button&amp;nbsp;&quot;Add Student&quot;" style="html=1;verticalAlign=bottom;endArrow=block;entryX=0.007;entryY=0.001;entryDx=0;entryDy=0;entryPerimeter=0;" parent="1" target="0AXuN8qhgTlBM-0Ob6mB-6" edge="1">
          <mxGeometry x="-0.0669" y="1" width="80" relative="1" as="geometry">
            <mxPoint x="440" y="330" as="sourcePoint" />
            <mxPoint x="585" y="330" as="targetPoint" />
            <mxPoint as="offset" />
          </mxGeometry>
        </mxCell>
        <mxCell id="0AXuN8qhgTlBM-0Ob6mB-23" value="2. createStudent()" style="html=1;verticalAlign=bottom;endArrow=block;entryX=0.038;entryY=0.002;entryDx=0;entryDy=0;entryPerimeter=0;" parent="1" source="0AXuN8qhgTlBM-0Ob6mB-6" target="0AXuN8qhgTlBM-0Ob6mB-9" edge="1">
          <mxGeometry x="0.0667" width="80" relative="1" as="geometry">
            <mxPoint x="605" y="350" as="sourcePoint" />
            <mxPoint x="750" y="350" as="targetPoint" />
            <mxPoint as="offset" />
          </mxGeometry>
        </mxCell>
        <mxCell id="0AXuN8qhgTlBM-0Ob6mB-24" value="" style="endArrow=none;dashed=1;html=1;rounded=0;entryX=1.002;entryY=0.267;entryDx=0;entryDy=0;entryPerimeter=0;" parent="1" target="0AXuN8qhgTlBM-0Ob6mB-2" edge="1">
          <mxGeometry width="50" height="50" relative="1" as="geometry">
            <mxPoint x="425" y="479.99999999999994" as="sourcePoint" />
            <mxPoint x="1275" y="479.99999999999994" as="targetPoint" />
          </mxGeometry>
        </mxCell>
        <mxCell id="0AXuN8qhgTlBM-0Ob6mB-25" value="[Invalid]" style="text;html=1;align=center;verticalAlign=middle;resizable=0;points=[];autosize=1;strokeColor=none;fillColor=none;" parent="1" vertex="1">
          <mxGeometry x="485" y="438" width="60" height="30" as="geometry" />
        </mxCell>
        <mxCell id="0AXuN8qhgTlBM-0Ob6mB-26" value="[Valid]" style="text;html=1;align=center;verticalAlign=middle;resizable=0;points=[];autosize=1;strokeColor=none;fillColor=none;" parent="1" vertex="1">
          <mxGeometry x="490" y="540" width="60" height="30" as="geometry" />
        </mxCell>
        <mxCell id="0AXuN8qhgTlBM-0Ob6mB-27" value="6. executeUpdate()" style="html=1;verticalAlign=bottom;endArrow=block;" parent="1" edge="1">
          <mxGeometry x="0.0667" width="80" relative="1" as="geometry">
            <mxPoint x="1080" y="530" as="sourcePoint" />
            <mxPoint x="1230" y="530" as="targetPoint" />
            <mxPoint as="offset" />
          </mxGeometry>
        </mxCell>
        <mxCell id="0AXuN8qhgTlBM-0Ob6mB-28" value="7.Return result" style="html=1;verticalAlign=bottom;endArrow=open;dashed=1;endSize=8;exitX=-0.055;exitY=0.291;exitDx=0;exitDy=0;exitPerimeter=0;" parent="1" edge="1">
          <mxGeometry x="-0.0033" relative="1" as="geometry">
            <mxPoint x="1229" y="560" as="sourcePoint" />
            <mxPoint x="1080" y="561" as="targetPoint" />
            <mxPoint as="offset" />
          </mxGeometry>
        </mxCell>
        <mxCell id="0AXuN8qhgTlBM-0Ob6mB-29" value="8.Return result" style="html=1;verticalAlign=bottom;endArrow=open;dashed=1;endSize=8;exitX=-0.055;exitY=0.291;exitDx=0;exitDy=0;exitPerimeter=0;" parent="1" edge="1">
          <mxGeometry x="-0.0033" relative="1" as="geometry">
            <mxPoint x="1069" y="580" as="sourcePoint" />
            <mxPoint x="920" y="580" as="targetPoint" />
            <mxPoint as="offset" />
          </mxGeometry>
        </mxCell>
      </root>
    </mxGraphModel>
  </diagram>
</mxfile>
